<svg width="58" height="55" viewBox="0 0 58 55" xmlns="http://www.w3.org/2000/svg" xmlns:xlink="http://www.w3.org/1999/xlink">
    <defs>
        <path id="c4sdgs6ida" d="M0 0h57.78v54.512H0z"/>
    </defs>
    <g fill="none" fill-rule="evenodd">
        <mask id="fyc71kijsb" fill="#fff">
            <use xlink:href="#c4sdgs6ida"/>
        </mask>
        <path d="M37.21 48.55c-4.843 0-9.686-1.771-13.583-5.314L10.161 54.22c-.472.472-1.299.354-1.77-.237C2.72 47.014-.116 38.51.002 30.242c0-8.15 3.071-16.064 8.977-22.088C14.532 2.603 21.973-.114 29.414.004c7.442 0 14.765 2.953 20.553 8.623 4.842 4.96 7.56 11.22 7.795 17.363.236 6.26-1.772 12.285-6.378 16.89-3.898 3.899-8.977 5.789-14.174 5.67zm-1.89-18.662c-.236.236-.472.354-.709.473h.237c.354 0 .708-.12 1.063-.355.472-.59.826-1.3.826-2.008 0-.71-.236-1.417-.826-2.008a5.558 5.558 0 0 0-3.07-1.3c-.946 0-1.89.237-2.6 1.064-.945.945-1.535 2.362-1.535 3.78.118 1.299.59 2.717 1.771 3.78 1.418 1.417 3.308 2.244 5.08 2.244 1.771.118 3.543-.473 4.842-1.89 1.772-1.654 2.6-3.898 2.481-6.26a9.996 9.996 0 0 0-2.953-6.615c-2.244-2.244-5.197-3.426-8.15-3.544-2.953 0-5.788 1.063-8.032 3.19-2.599 2.716-3.898 6.26-3.78 9.922.118 3.66 1.772 7.44 4.606 10.394 3.544 3.544 8.151 5.315 12.64 5.315a16.82 16.82 0 0 0 12.401-4.961c4.016-4.016 5.906-9.45 5.67-15.001-.237-5.551-2.717-11.221-7.087-15.71C42.88 5.2 36.147 2.484 29.415 2.484a26.045 26.045 0 0 0-18.663 7.442C5.32 15.478 2.484 22.8 2.484 30.242c-.118 7.324 2.244 14.883 7.087 21.262l12.402-10.04c-2.835-3.19-4.37-7.087-4.488-10.985-.119-4.371 1.3-8.623 4.488-11.812 2.717-2.717 6.26-3.898 9.922-3.898a14.53 14.53 0 0 1 9.803 4.252c2.363 2.362 3.544 5.315 3.662 8.268.118 3.072-.945 6.025-3.189 8.15-1.772 1.89-4.252 2.717-6.615 2.717-2.48-.118-4.96-1.181-6.85-3.071-1.654-1.535-2.363-3.543-2.48-5.551 0-2.008.708-4.134 2.243-5.552 1.3-1.3 2.953-1.89 4.49-1.772 1.771.118 3.424.827 4.724 2.126 1.063 1.064 1.535 2.363 1.535 3.662 0 1.418-.59 2.835-1.535 3.78-.946.827-2.008 1.18-3.072 1.063-1.063 0-2.126-.59-2.952-1.3 0 0 0-.117-.119-.117-.708-.71-.945-1.536-.945-2.363 0-1.063.591-1.89 1.064-2.48.826-.71 1.653-.827 2.48-.591.591.118 1.063.59 1.417.945 1.418 1.299.355 2.48-.118 2.953h-.118z" fill="#2B2A29" mask="url(#fyc71kijsb)"/>
    </g>
</svg>
