<svg width="62" height="41" viewBox="0 0 62 41" xmlns="http://www.w3.org/2000/svg" xmlns:xlink="http://www.w3.org/1999/xlink">
    <defs>
        <path id="cydciz2tib" d="M0 0h62v40.261H0z"/>
    </defs>
    <g transform="translate(-455 -779)" fill="none" fill-rule="evenodd">
        <g transform="translate(455 779)">
            <mask id="otcerw8bzc" fill="#fff">
                <use xlink:href="#cydciz2tib"/>
            </mask>
            <path d="M45.254 28.492c2.194-2.393 3.988-4.985 5.482-7.377 0-.1.1-.2.2-.299.399-.399 1.097-.3 1.495.1l6.48 6.878-1.695-7.377v-.498l1.794-7.476-6.58 6.878c0 .1-.099.199-.198.199-.498.3-1.196.2-1.496-.299-1.395-2.492-3.288-5.083-5.581-7.576-3.19-3.588-7.077-6.678-11.065-8.373-3.987-1.595-8.174-1.694-12.16.599-.698.497-1.396.996-2.094 1.594 2.692 9.769 2.591 19.538 0 29.407.598.497 1.296.996 1.994 1.394 3.987 2.493 8.173 2.293 12.16.698 4.088-1.694 7.975-4.884 11.264-8.472zm6.58-5.184c-1.396 2.193-3.091 4.486-5.084 6.58-3.39 3.787-7.576 7.176-11.962 8.97-4.586 1.895-9.37 2.094-14.055-.797-.997-.498-1.894-1.296-2.79-2.093a1.125 1.125 0 0 1-.3-1.096c2.692-9.77 2.89-19.638 0-29.507-.199-.398 0-.797.3-1.096a19.054 19.054 0 0 1 2.99-2.193c4.585-2.692 9.37-2.592 13.855-.698 4.486 1.695 8.573 5.084 11.962 8.872a49.431 49.431 0 0 1 5.083 6.678l8.373-8.87c.399-.4.997-.4 1.495 0 .2.298.299.597.299.996l-2.691 11.164L61.8 31.083c.1.599-.2 1.096-.798 1.296-.398.1-.697-.1-.996-.3l-8.174-8.77zM12.758 9.253 2.59 20.118 12.76 30.984c.897-3.589 1.396-7.178 1.396-10.866 0-3.588-.4-7.177-1.396-10.865zM.299 19.42 12.56 6.462c.399-.399 1.097-.499 1.496-.1.1.2.2.3.299.499a46.826 46.826 0 0 1 1.894 13.257c0 4.486-.698 8.872-1.894 13.258-.2.598-.798.897-1.296.798-.2-.1-.399-.2-.598-.4L.3 20.916c-.4-.499-.4-1.096 0-1.496z" fill="#2B2A29" mask="url(#otcerw8bzc)"/>
        </g>
        <path d="M464.669 798.52c-.2-.1-.398-.199-.598-.199-.3 0-.498.1-.598.2-.2.198-.3.398-.3.598 0 .298.1.497.3.597.1.2.398.3.598.3.2 0 .399-.1.598-.3.2-.1.299-.299.299-.597 0-.2-.1-.4-.3-.599m-.597-2.392c.797 0 1.595.399 2.093.897.498.598.897 1.296.897 2.094 0 .897-.399 1.595-.897 2.092-.498.599-1.296.898-2.093.898-.798 0-1.595-.3-2.093-.898-.599-.497-.897-1.195-.897-2.092 0-.798.298-1.496.897-2.094.498-.498 1.295-.897 2.093-.897" fill="#2B2A29"/>
    </g>
</svg>
