<svg width="55" height="60" viewBox="0 0 55 60" xmlns="http://www.w3.org/2000/svg" xmlns:xlink="http://www.w3.org/1999/xlink">
    <defs>
        <path id="uz5drgbnya" d="M0 0h54.268v60H0z"/>
    </defs>
    <g fill="none" fill-rule="evenodd">
        <mask id="o8huqgn1rb" fill="#fff">
            <use xlink:href="#uz5drgbnya"/>
        </mask>
        <path d="M27.12 12.397c1.488 0 2.777-.497 3.67-1.488.892-.893 1.487-2.181 1.487-3.67a5.105 5.105 0 0 0-1.488-3.57c-.892-.992-2.181-1.586-3.669-1.586-1.388 0-2.677.594-3.669 1.586a5.105 5.105 0 0 0-1.488 3.57c0 1.489.596 2.777 1.488 3.67.992.991 2.28 1.488 3.67 1.488m1.09 2.082v2.58h4.86c.595 0 .991.495.991 1.09 0 .595-.396.991-.991.991h-4.86V57.82c5.554-.2 10.512-2.579 14.28-6.249 3.373-3.47 5.654-8.033 6.15-13.09l-2.58 1.983c-.495.396-1.189.297-1.487-.199-.396-.495-.297-1.09.199-1.487l4.164-3.074c.2-.298.497-.596.893-.596.496 0 .893.298.992.695l3.273 4.363c.297.496.198 1.092-.199 1.488-.495.298-1.19.198-1.487-.198l-1.686-2.282C50.03 44.53 47.55 49.39 43.98 53.058 39.616 57.322 33.666 60 27.12 60a23.688 23.688 0 0 1-16.76-6.942 24.033 24.033 0 0 1-6.843-13.885L1.93 41.455c-.396.396-1.09.496-1.487.198-.496-.396-.595-.992-.199-1.488l3.174-4.363c.199-.397.496-.695.992-.695.397 0 .694.298.892.596l4.165 3.074c.497.396.596.992.298 1.487-.397.496-.992.595-1.487.2L5.6 38.478c.496 5.058 2.777 9.62 6.248 13.091 3.669 3.67 8.628 6.05 14.28 6.249V19.14H21.17a.993.993 0 0 1-.992-.991c0-.595.496-1.09.992-1.09h4.959v-2.58c-1.587-.297-3.075-.992-4.166-2.082-1.29-1.29-2.083-3.075-2.083-5.157 0-1.984.794-3.77 2.083-5.058C23.351.793 25.137 0 27.12 0s3.867.793 5.157 2.182A7.118 7.118 0 0 1 34.36 7.24c0 2.082-.793 3.868-2.082 5.157-1.09 1.09-2.48 1.785-4.066 2.082" fill="#2B2A29" mask="url(#o8huqgn1rb)"/>
    </g>
</svg>
