<svg width="33" height="60" viewBox="0 0 33 60" xmlns="http://www.w3.org/2000/svg" xmlns:xlink="http://www.w3.org/1999/xlink">
    <defs>
        <path id="ac3f0pga5a" d="M0 0h32.44v60H0z"/>
    </defs>
    <g fill="none" fill-rule="evenodd">
        <mask id="nst6wdzj0b" fill="#fff">
            <use xlink:href="#ac3f0pga5a"/>
        </mask>
        <path d="M28.86 38.083H3.58c-.216.76-.433 1.411-.543 2.17a56.291 56.291 0 0 0-.65 5.425h27.558c-.109-1.519-.217-3.146-.434-4.882-.217-.868-.434-1.845-.651-2.713m1.085 9.982H2.387v1.845c.217 3.797 1.193 5.75 3.146 6.618 2.17 1.086 5.75 1.194 10.959 1.194 5.099 0 8.57-.218 10.74-1.52 1.953-1.084 2.821-3.255 2.821-7.16 0-.326 0-.652-.108-.977m-26.04-12.26h24.738c-.434-2.17-1.085-4.232-1.736-6.076-1.628-4.014-3.797-7.053-6.943-7.704-.543-.108-.977-.542-.977-1.085V2.28h-5.1V20.94c0 .543-.433.977-.976 1.085-3.254.651-5.642 4.015-7.378 8.464-.651 1.626-1.193 3.472-1.627 5.316M12.694 0h7.487c.65 0 1.193.543 1.193 1.193v18.88c3.472 1.085 5.967 4.556 7.594 8.788 1.411 3.58 2.28 7.595 2.713 11.501.108.434.217.977.325 1.41.218 1.736.326 3.364.435 5.1 0 .217-.109.325-.109.542v1.628c0 4.882-1.193 7.595-4.014 9.222C25.714 59.674 21.917 60 16.492 60c-5.534 0-9.331-.108-11.935-1.302-2.821-1.41-4.231-3.906-4.449-8.68v-2.604C0 47.197 0 47.089 0 46.872v-.651c.217-2.17.326-4.34.76-6.618.542-3.364 1.41-6.945 2.712-9.982 1.844-4.666 4.449-8.355 8.03-9.549V1.193c0-.65.541-1.193 1.192-1.193" fill="#2B2A29" mask="url(#nst6wdzj0b)"/>
    </g>
</svg>
