<svg width="60" height="60" viewBox="0 0 60 60" xmlns="http://www.w3.org/2000/svg" xmlns:xlink="http://www.w3.org/1999/xlink">
    <defs>
        <path id="1rp43hoyoa" d="M0 0h60v60.002H0z"/>
    </defs>
    <g fill="none" fill-rule="evenodd">
        <mask id="vxe29fswub" fill="#fff">
            <use xlink:href="#1rp43hoyoa"/>
        </mask>
        <path d="M44.162 32.024c.115-.694.115-1.387.115-1.965 0-.694 0-1.272-.115-1.965V27.747c-.462-2.89-1.85-5.665-4.046-7.861-2.197-2.198-4.971-3.585-7.862-3.932h-.115l-.116-.116h-.115c-.579-.115-1.273-.115-1.966-.115-.578 0-1.271 0-1.85.115h-.23l-.117.116c-2.89.347-5.664 1.734-7.86 3.932-2.313 2.311-3.7 5.202-4.047 8.208v.115l-.116.116v3.468l.116.116c.347 3.006 1.734 5.896 4.047 8.208 2.311 2.312 5.202 3.7 8.208 4.046v.116h.115c.578 0 1.156.116 1.734.116.578 0 1.156-.116 1.734-.116h.116l.116-.116h.346c2.89-.462 5.665-1.734 7.862-4.046 2.196-2.197 3.584-4.971 4.046-7.862v-.231zM16.185 6.127l6.82 8.671c2.197-1.04 4.625-1.502 6.937-1.502 2.428 0 4.856.462 7.052 1.502l6.821-8.555c-4.278-2.543-9.017-3.7-13.873-3.7-4.74 0-9.48 1.157-13.757 3.584zM7.514 14.22l8.44 6.705c.577-1.04 1.387-1.849 2.196-2.774.81-.81 1.735-1.503 2.66-2.197l-6.706-8.439c-1.271.925-2.428 1.965-3.584 3.006-1.156 1.156-2.197 2.427-3.006 3.7zM6.127 43.816l8.671-6.82c-1.04-2.197-1.619-4.625-1.619-6.937 0-2.427.579-4.74 1.619-7.052l-8.67-6.821c-2.43 4.277-3.7 9.133-3.7 13.873s1.27 9.48 3.7 13.757zm7.862 8.671 6.82-8.44c-.924-.577-1.85-1.271-2.659-2.196-.81-.81-1.619-1.734-2.196-2.66l-8.44 6.706c.81 1.273 1.85 2.429 3.006 3.584 1.04 1.156 2.196 2.081 3.469 3.006zm29.826 1.387-6.82-8.554c-2.197.925-4.625 1.502-7.053 1.502-2.312 0-4.74-.577-6.936-1.502l-6.937 8.439a27.272 27.272 0 0 0 13.873 3.815c4.856 0 9.595-1.271 13.873-3.7zm8.67-7.977-8.439-6.705c-.694.925-1.386 1.85-2.196 2.659-.81.925-1.734 1.619-2.66 2.196l6.706 8.556c1.272-.925 2.428-1.966 3.584-3.122 1.156-1.155 2.08-2.311 3.005-3.584zm1.388-29.711-8.67 6.82c1.04 2.313 1.502 4.626 1.502 7.053 0 2.312-.462 4.74-1.503 6.936l8.671 6.821c2.428-4.277 3.7-9.017 3.7-13.757s-1.272-9.596-3.7-13.873zm1.272-2.544c0 .116.115.116.115.231C58.381 18.844 60 24.393 60 30.059c0 5.55-1.619 11.214-4.74 16.186 0 0-.115.115-.115.23-1.156 1.62-2.428 3.237-3.931 4.74-1.502 1.503-3.121 2.776-4.856 3.932-.115.115-.115.115-.23.115-4.856 3.237-10.521 4.74-16.186 4.74-7.63 0-15.26-2.89-21.156-8.786-1.503-1.504-2.774-3.121-3.931-4.74-.116-.116-.116-.231-.116-.231C1.618 41.273 0 35.608 0 30.059c0-5.665 1.618-11.215 4.74-16.186 0-.115 0-.115.115-.231 1.157-1.734 2.428-3.352 3.931-4.856C14.681 3.006 22.312 0 29.942 0c5.665 0 11.33 1.619 16.185 4.74.116.116.116.116.231.116v.115a25.183 25.183 0 0 1 4.856 3.815c1.503 1.504 2.775 3.122 3.93 4.856zm-13.295 4.51c.81.924 1.502 1.734 2.196 2.773l8.44-6.705c-.926-1.272-1.85-2.543-3.006-3.7-1.156-1.04-2.312-2.08-3.584-3.005l-6.705 8.439c.925.694 1.85 1.388 2.66 2.197z" fill="#2B2A29" mask="url(#vxe29fswub)"/>
    </g>
</svg>
